<svg xmlns="http://www.w3.org/2000/svg" viewBox="0 0 1000 1000"><defs><style>.cls-1{fill:#fff;}</style></defs><g id="Layer_2" data-name="Layer 2"><g id="Layer_1-2" data-name="Layer 1"><path class="cls-1" d="M875,312.5H454.05A250,250,0,0,1,239.67,191.13L148.25,38.75A79.81,79.81,0,0,0,0,79.8V875a125,125,0,0,0,125,125H875a125,125,0,0,0,125-125V437.5A125,125,0,0,0,875,312.5Zm-1.54,240.88C837.33,721.63,680.27,843.74,500,843.74S162.66,721.63,126.53,553.39c-8.16-38,17-75.25,56.28-83.16s77.67,16.5,85.83,54.51C290.84,628.1,388.13,703.12,500,703.12s209.16-75,231.36-178.37c8.16-38,46.6-62.43,85.83-54.52S881.62,515.37,873.46,553.38Z"/></g></g></svg>