<svg xmlns="http://www.w3.org/2000/svg" viewBox="0 0 1000 1000"><defs><style>.cls-1{fill:#065;}.cls-2{fill:#fff;}.cls-3{fill:#f33;}</style></defs><g id="Layer_2" data-name="Layer 2"><g id="Layer_1-2" data-name="Layer 1"><path class="cls-1" d="M1000,537.5V775c0,124.25-100.75,225-225,225H225C100.72,1000,0,899.25,0,775V81.33C0,40.83,29.58,5.65,69.75.63a79.82,79.82,0,0,1,78.5,38.12l91.42,152.38A250,250,0,0,0,454.05,312.5H775C899.25,312.5,1000,413.23,1000,537.5Z"/><path class="cls-2" d="M841.28,546.3C816.88,659.37,733.15,749.64,625,789.9c-4,1.47-8,2.8-12,4.14a363.16,363.16,0,0,1-228.26,0c-3.33-1.07-6.54-2.14-9.74-3.34C265.82,751,180.88,660.17,156.48,546.3c-7.47-34.79,15.6-68.93,51.6-76.13s71.2,15.07,78.67,50c11.33,52.53,44,97.2,88.26,126.53,3.07,2,6.14,3.87,9.34,5.74a225.87,225.87,0,0,0,229.06,0c4-2.27,7.87-4.8,11.6-7.34,43.2-29.2,74.8-73.2,85.87-124.93,7.6-34.93,42.8-57.34,78.8-50S848.75,511.51,841.28,546.3Z"/><path class="cls-3" d="M625,645.1V796a104.77,104.77,0,0,1-.53,11.19,125,125,0,0,1-248.94,0A107.46,107.46,0,0,1,375,796V646.7c3.07,2,6.14,3.87,9.34,5.74a225.87,225.87,0,0,0,229.06,0C617.41,650.17,621.28,647.64,625,645.1Z"/></g></g></svg>