<svg xmlns="http://www.w3.org/2000/svg" viewBox="0 0 1000 1000"><defs><style>.cls-1{fill:#f90;}.cls-2{fill:#fff;}</style></defs><g id="Layer_2" data-name="Layer 2"><g id="Layer_1-2" data-name="Layer 1"><path class="cls-1" d="M1000,437.5V875a125,125,0,0,1-125,125H125A125,125,0,0,1,0,875V79.8a79.81,79.81,0,0,1,148.25-41l91.42,152.38A250,250,0,0,0,454.05,312.5H875A125,125,0,0,1,1000,437.5Z"/><path class="cls-2" d="M500,843.74c-180.27,0-337.33-122.11-373.46-290.35-8.16-38,17-75.25,56.28-83.16s77.67,16.5,85.83,54.51C290.84,628.1,388.13,703.12,500,703.12s209.16-75,231.36-178.37c8.16-38,46.6-62.43,85.83-54.52s64.44,45.14,56.28,83.15C837.33,721.63,680.27,843.74,500,843.74Z"/></g></g></svg>