<svg xmlns="http://www.w3.org/2000/svg" viewBox="0 0 1241.25 300"><defs><style>.cls-1{fill:#fff;}.cls-2{fill:#f90;}</style></defs><g id="Layer_2" data-name="Layer 2"><g id="Layer_1-2" data-name="Layer 1"><path class="cls-1" d="M402.77,239.45l-26.36-76A25.51,25.51,0,0,1,375,156c0-7,5.63-13.87,14.69-13.87,7.65,0,12.68,4.82,14.89,11.86l16.5,54.69L438,154.19c2.21-7.24,7.84-12.26,15.69-12.26h1.81c7.85,0,13.49,5,15.7,12.26l17.1,54.69,16.91-55.09c2-6.43,6.64-11.66,14.69-11.66a13.92,13.92,0,0,1,14.29,14.07,27.13,27.13,0,0,1-1,6.24l-27.17,77c-3.22,9.45-9.45,13.67-16.9,13.67h-1c-7.44,0-13.68-4.22-16.5-13.07l-17.1-54.29-17.31,54.29c-2.82,8.85-9.06,13.07-16.5,13.07h-1C412.23,253.12,406,248.9,402.77,239.45Z"/><path class="cls-1" d="M540,220.14v-.4c0-23.52,17.91-34.38,43.46-34.38a76.85,76.85,0,0,1,26.37,4.42V188c0-12.66-7.85-19.7-23.15-19.7a70.24,70.24,0,0,0-21.13,3,12.8,12.8,0,0,1-4.42.81,12.45,12.45,0,0,1-12.68-12.47,12.66,12.66,0,0,1,8.25-11.86c9.66-3.62,20.12-5.63,34.41-5.63,16.7,0,28.78,4.42,36.42,12.06,8,8.05,11.68,19.91,11.68,34.39v49.06a14.69,14.69,0,0,1-14.9,14.68c-8.85,0-14.69-6.24-14.69-12.67v-.2c-7.44,8.24-17.7,13.67-32.6,13.67C556.68,253.12,540,241.46,540,220.14Zm70.23-7v-5.43a47.52,47.52,0,0,0-19.52-4c-13.08,0-21.13,5.22-21.13,14.88v.4c0,8.24,6.84,13.07,16.7,13.07C600.55,232,610.21,224.17,610.21,213.11Z"/><path class="cls-1" d="M664.6,220.55V169.47h-1a13.07,13.07,0,1,1,0-26.13h1V129.86a15.3,15.3,0,0,1,30.59,0v13.48h13.48a13.07,13.07,0,1,1,0,26.13H695.19v46.05c0,7,3,10.46,9.86,10.46,1,0,3-.21,3.62-.21a12.75,12.75,0,0,1,12.68,12.67,12.42,12.42,0,0,1-7.85,11.46,45,45,0,0,1-17.5,3C677.28,252.92,664.6,245.48,664.6,220.55Z"/><path class="cls-1" d="M736.41,240.86a12.21,12.21,0,0,1-5.84-10.46,12.1,12.1,0,0,1,18.11-10.46c10.26,6.44,20.53,9.66,29.18,9.66,8.85,0,12.88-3.22,12.88-8v-.4c0-6.64-10.47-8.85-22.34-12.47-15.09-4.42-32.2-11.46-32.2-32.37v-.4c0-21.92,17.71-34.18,39.45-34.18a75.81,75.81,0,0,1,33.4,8.24,12.44,12.44,0,0,1,7.25,11.46A12,12,0,0,1,804,173.5a11.21,11.21,0,0,1-5.63-1.41c-8.66-4.22-16.91-6.84-23.35-6.84-7.44,0-11.27,3.22-11.27,7.44v.4c0,6,10.27,8.85,21.94,12.87,15.09,5,32.6,12.27,32.6,32v.41c0,23.92-17.91,34.78-41.26,34.78A75.22,75.22,0,0,1,736.41,240.86Z"/><path class="cls-1" d="M836.38,118.4a15.3,15.3,0,0,1,30.59,0v40.42c7.45-10.06,17.71-17.5,33.61-17.5,25.15,0,49.1,19.71,49.1,55.7v.4c0,36-23.55,55.7-49.1,55.7-16.3,0-26.37-7.44-33.61-16.08v.2a15.3,15.3,0,0,1-30.59-.2Zm82.71,79V197c0-17.89-12.07-29.76-26.36-29.76S866.57,179.13,866.57,197v.4c0,17.9,11.87,29.76,26.16,29.76S919.09,215.52,919.09,197.42Z"/><path class="cls-1" d="M1065.83,237a15.3,15.3,0,0,1-30.59,0v-1.21c-7,9-16.09,17.29-31.59,17.29-23.14,0-36.63-15.28-36.63-40v-55.7a15.3,15.3,0,0,1,30.59,0v46.05c0,14.47,6.84,21.91,18.52,21.91s19.11-7.44,19.11-21.91V157.41a15.3,15.3,0,0,1,30.59,0Z"/><path class="cls-1" d="M1089.72,118.4a15.3,15.3,0,0,1,30.59,0V237a15.3,15.3,0,0,1-30.59,0Z"/><path class="cls-1" d="M1144.05,118.4a15.3,15.3,0,0,1,30.59,0v66.76l38.23-36.2c4.43-4.22,8.05-6.83,13.49-6.83,8.25,0,13.48,6.63,13.48,13.67,0,5.23-2.82,9.25-7,13.27l-24.15,20.71,28.78,38.81c2.61,3.62,3.82,6.43,3.82,9.85,0,8.25-6.64,13.88-14.29,13.88-6,0-9.66-2-13.28-7l-26.77-36.8-12.27,11.06V237a15.3,15.3,0,0,1-30.59,0Z"/><path class="cls-2" d="M300,131.25V262.5A37.5,37.5,0,0,1,262.5,300H37.5A37.5,37.5,0,0,1,0,262.5V23.94A23.94,23.94,0,0,1,44.47,11.62L71.9,57.34a75,75,0,0,0,64.31,36.41H262.5A37.5,37.5,0,0,1,300,131.25Z"/><path class="cls-1" d="M150,253.12c-54.08,0-101.2-36.63-112-87.1-2.45-11.41,5.11-22.58,16.88-25s23.3,5,25.75,16.35c6.66,31,35.85,53.52,69.41,53.52s62.75-22.51,69.4-53.52c2.45-11.4,14-18.72,25.76-16.35s19.33,13.54,16.88,25C251.2,216.49,204.08,253.12,150,253.12Z"/></g></g></svg>